<?xml version="1.0" encoding="utf-8"?>
<!-- Generator: Adobe Illustrator 25.0.0, SVG Export Plug-In . SVG Version: 6.00 Build 0)  -->
<svg version="1.1" id="Layer_1" xmlns="http://www.w3.org/2000/svg" xmlns:xlink="http://www.w3.org/1999/xlink" x="0px" y="0px"
	 viewBox="0 0 2000 2000" style="enable-background:new 0 0 2000 2000;" xml:space="preserve">
<style type="text/css">
	.st0{fill:#F7F7F7;}
</style>
<g>
	<path class="st0" d="M431.27,1473.81c16.54,35.59,70.8,30.24,102.47,7.07s55.87-58.35,93.13-70.66
		c48.91-16.16,101.72,13.67,136.8,51.39c35.08,37.72,60.63,84.32,100.23,117.26c51.31,42.68,124.48,57.5,188.35,38.17
		c63.88-19.33,116.54-72.24,135.58-136.21c19.18-64.46,13.83-149.23,73.49-180.28c45.38-23.61,102.04,2.91,136.8,40.45
		c34.75,37.53,57.16,85.42,93.47,121.45c67.69,67.18,178.66,81.35,265.84,42.7c87.18-38.65,149.25-123.99,170.34-217
		c21.08-93,3.95-192.17-36.61-278.48c-59.82,78.95-201.94,68.89-250.04-17.7c-33.54-60.38-21.75-134.33-22.5-203.39
		c-1.29-119.29-46.34-240.36-134.14-321.12s-219.96-115.34-332.06-74.53c-112.1,40.81-193.36,161.93-175.81,279.93
		c8.89,59.77,40.03,113.63,58.82,171.05c18.79,57.43,22.98,126.56-16.19,172.57S887.56,1056.1,874.1,997.2
		c-6.74-29.49,7.62-59.5,8.82-89.72c1.88-47.15-32.69-93.25-78.49-104.64c-45.8-11.39-97.94,13.13-118.37,55.66
		c-40.92,85.17,36.84,210.58-35.54,271.34c-36.58,30.71-92.5,22.22-135.18,0.79c-42.69-21.43-79.9-53.83-125.08-69.33
		c-45.17-15.51-104.74-7.17-126.32,35.44c-29.79,58.8,32.27,132.13,7.7,193.29c-14.7,36.58-57.34,55.55-96.75,54.68
		c-39.42-0.87-76.57-17.44-112.47-33.72l319.47,163.66L431.27,1473.81z"/>
</g>
</svg>
