<?xml version="1.0" encoding="utf-8"?>
<!-- Generator: Adobe Illustrator 25.0.0, SVG Export Plug-In . SVG Version: 6.00 Build 0)  -->
<svg version="1.1" id="Layer_1" xmlns="http://www.w3.org/2000/svg" xmlns:xlink="http://www.w3.org/1999/xlink" x="0px" y="0px"
	 viewBox="0 0 2000 2000" style="enable-background:new 0 0 2000 2000;" xml:space="preserve">
<style type="text/css">
	.st0{fill:#F2F2F2;}
</style>
<g>
	<path class="st0" d="M1942.41,1394.95c-19.57-2.49-28.76-10.95-26.17-26.17c12.5-25.2,9.25-55.74,0-88.31l4.91-112.84
		c6.54-37.61,6.34-75.35,14.72-91.58c5.87-8.32,5.63-17.03-1.64-26.17l34.34-266.57l-6.54,16.35c-24.53-8.18-79.06,3.58-78.5-29.44
		c-5.77-26.75-42.27-35.68-96.49-34.34c10.59,23.87,9.24,73.44,6.54,125.93c24.57-1.88,45.65,6.81,60.51,34.34
		c22.71,26.46,51.29,35.63,83.41,34.34l-14.72,114.48l-4.91,40.89c-4.42,5.3-10.07,12.08-16.35,19.63
		c-1.64,16.35-10.57,14.24-11.45-1.64c0.62-15.67-3.14-28.19-17.99-32.71l-1.64-16.35c22.78,6.34,19.82-21.32,13.08-53.97
		c11.73-9.33,6.54-19.62-14.72-11.45c-14.26-2-21.97,2.23-26.17,9.81c-15.94,7.77-17.76,16.96-3.27,27.8l8.18,21.26
		c1.9,8.84,0.37,14.87-5.72,17.17c-17.17,7.36-15.14,64.63,4.09,85.86c-19.39,40.6-23.13,83.63,0,130.83
		c-9.55,20.87-18.92,41.71-11.45,60.51c-14.55,20.33-20.63,38.59-8.18,52.33h45.79c-37.8-5.72-41.7-25.59-21.26-55.6
		c10.04,16.7,25.81,27.63,45.79,34.34l-1.64,21.26H1942.41z"/>
	<path class="st0" d="M1914.6,1128.38c-8.18,6.54-12.54,24.35-22.9,31.07l11.45,4.91c5.12,1.3,9.89,1.23,11.45-11.45V1128.38z"/>
	<path class="st0" d="M997.14,1185.62c1.77-20.31,1.5-63.21,0-120.2c9.08-170.77,85.47-246.78,209.33-255.94l-19.63-19.62
		l26.17-11.45v-67.05l-4.91-16.35l-24.53-8.18l9.81-19.62l88.31-62.15l45.79,34.34l13.08,1.64l31.07,34.34l1.64,11.45l-21.26,11.45
		v88.31l10.63,6.54l-7.36,9.81c36.89,9.7,72.35,11.5,106.3,4.91c10.61-7.15,20.3-5.94,29.44,0c9.24,6.53,17.42,7.1,24.53,1.64
		c27.2-17.94,58.74-15.16,93.22,1.64c132.47,68.69,132.47,219.15,145.55,233.86c4.6,4.15,11.99,4.86,21.26,3.27l-14.72,6.54
		c14.52,6.64,33.85,5.35,55.6,0c-14.96,9.16-32.22,14.1-53.97,10.63c15.62,67.62,15.81,145.14,4.91,229.78
		c-6.87,22.67-10.2,47.69-4.91,78.5l-17.99-22.9c-24.07,23.91-50.6,19.66-78.5,0c14-2.14,18.17-15.96,21.26-31.07
		c5.09,34.51,32.71,35.98,40.89-17.99c6.95-94.54,5.12-179.13-31.07-224.87c-8.65-13.59-15.06-6.69-19.63,17.17
		c-15.85-31.5-32.58-52.68-67.05-45.79c-9.04,3.27-17.74,0.34-26.17-8.18c-6.54-7.08-11.45-7.08-14.72,0
		c-7.03,7.6-12.49,8.75-15.54,0c-2.24-7.93-5.59-13.17-13.9-6.54c-23.45,35.7-32.95,74.71-11.45,121.02
		c23.5,47.7,38.97,99.65,44.16,157c5.2,23.83,10.19,48.31,21.26,53.97l13.08,29.44h-251.85c26.26-60.59,33.74-135.61,34.34-215.87
		c-40.89,21.26-85.04-16.35-191.34,9.81c-10.79,37.79-23.81,71.7-45.79,89.95c3.27,47.3,18.32,87.31,51.52,116.11h-167.63
		c3.19-6.43-5.72-15.03-19.62-24.53c26.76-21.26,45.99-55.44,62.15-94.85c-18.77-41.47-34.54-82.34-47.43-122.66
		c-19.62-9.81-4.91-57.24-29.44-75.23c4.33,49.99,4.63,90.47,0,119.38c21.87,26.54,20.51,58.2,11.45,91.58
		C989.4,1270.19,982.7,1236.92,997.14,1185.62z M1441.97,1367.15c-0.31,12.56,4.32,16.7,16.35,8.18
		c9.11,26.9,52.71,19.02,47.43-16.35l3.27-45.79c-8.21-44.88-20.28-81.82-37.61-107.94
		C1453.16,1268.91,1434.27,1333.33,1441.97,1367.15z M1324.22,770.22c3.37,9.68,10.58,12.27,19.62,11.45V722.8l-19.62-17.99V770.22z
		 M1280.06,722.8c1.64,21.26,26.17,22.9,30.26,50.7l4.09-73.59l-13.08,13.08l-41.7,2.45l-6.54-14.72l0.82,61.44
		C1255.83,747.64,1275.6,746.58,1280.06,722.8z M1222.82,773.5c10.35,1.1,16.35,0,17.99-3.27v-65.42l-17.99,16.35V773.5z"/>
	<path class="st0" d="M1253.9,766.95v-4.79C1253.72,763.6,1253.7,765.19,1253.9,766.95z"/>
	<path class="st0" d="M997.14,1390.05l-17.17-22.9c21.79-6.54,24-27.53,0-67.87c-12.06-9.55-10.22-47.29-15.54-77.68
		c-6.69-2.32-9.97-10.29-11.45-21.26c8.57-9.74,7.79-21.34,0-34.34l-9.81-242.04c13.42-0.54,18.02-4.35,4.91-14.72
		c78.5-26.17,74.61-131.73-0.82-154.55c-12.11-3.99-18.48-11.83-18.81-23.71c0.94,11.7-2.65,21.09-17.99,24.53
		c-80.14,16.35-67.05,145.55,4.91,152.09l-4.91,13.9l14.72-0.82l11.45,165.18c-2.66,21.49-16.35,21.26-16.35,9.81l-14.72-21.26
		c-6.49-5.22-7.02-9.9,0-13.9c6.68,7.3,7.51-8.69,4.91-38.43c3.82-18.82,0.27-29.04-13.08-27.8c-20.33,1.03-36.41,7.38-42.52,26.17
		c-6.9,14.31-3.21,18.93,6.54,17.99l11.45,22.08c3.48,6.76,4.15,13.13,0,18.81c-13.49,3.54-11.46,22.42-6.54,44.16
		c10.36,13.9,12.46,32.23,8.18,53.97c-6.86,31.49-3.74,56.31,17.99,68.69c6.97,5.74,9.33,12.45,5.72,20.44
		c-4.42,8.99-5.39,16.71,0,22.08l-12.27,31.07c-4.57,2.6-6.25,8.64-6.54,16.35c0.34,10.86-1.68,19.25-9.81,21.26
		c-8.91,7.38-12.33,14.56-3.27,21.26c0.6,5.61,3.95,11.06,9.81,16.35L997.14,1390.05z"/>
	<path class="st0" d="M803.34,1394.95c-12.41-3.92-20.27-9.22-22.08-16.35l17.99-5.33l-6.95-15.12
		c-11.36-14.15,11.86-44.97,0-109.57h40.48c9.12-20.18,10.51-38.5,0-53.97l-35.16-12.27c-10.42-0.55-15.19-3.89-16.35-8.99
		c-5.41-30.94-4.51-51.02,4.91-56.42c9.38,22.52,28.83,43.47,52.33,63.78l-4.91,6.54l17.99,13.08l-9.81-31.07
		c-21.46-20.84-36.84-44.77-45.79-71.96c-4.35-16.43-15.5-23.51-31.07-24.53c-3.03-7.26-3.51-12.54,0-14.72
		c15.15,2.05,16.18-20.51,14.72-47.43c-14.7-13.25-30.08-18.39-47.43,0c-6.41,24.6-5.2,39.84,4.91,44.16
		c3.83,4.39,4.36,10.94,1.64,19.62c-13.35,3.17-23.79,7.77-29.44,14.72c-3.47,14.06-4.17,27.99,0,41.7
		c-9.81,8.99-16.14,21.15-31.07,25.35c-6.99,6.75-15.56,8.33-26.17,3.27c-0.28,5.07,4.57,8.57,11.45,11.45
		c3.08-1.63,8.87-5.69,14.72-9.81c27.8,1.64,32.71-26.17,40.89-26.17l-4.91,35.98l-55.6,3.27c-24.79,13.64-25.2,30.97-9.81,50.7
		l45.79,13.08c-1.07,22.13-0.5,42.77,3.27,60.51c4.43,20.74,11.06,40.34,22.9,57.24l0.82,11.45l-12.27,6.12l8.18,5.33
		c2.28,2.91,0.48,6.26-3.27,9.81l-25.35,6.54h53.97c-6.47-4.54-8.28-8.24-7.36-11.45c0,0,14.72,1.64,14.72-0.82
		c0-2.45-18.81-15.54-18.81-15.54c8.84-4.52,17.33-3.16,25.35,6.12c4.4,8.27,6.64,15.8,4.09,21.68H803.34z"/>
	<path class="st0" d="M653.7,1394.95c2.29-51.65-1.43-96.5-24.53-119.38c-0.64-15.1-6.35-27.53-19.62-35.98
		c11.88-21.24,2.41-31.76-17.99-36.8c-8.8-1.43-7.35-15.82-3.27-33.53c20.74-1.86,33.84-8.55,35.55-22.47
		c-0.04-9.16-3.51-14.88-12.12-15.43c-15.85-2.95-28.31-7.69-37.19-14.32l2.31-8.28h9.81c-0.3-9.21-1.49-16.27-4.91-17.99
		c7.83-4.55,6.11-12.28,8.18-22.9c-17.99-19.62-46.46-25.63-68.69,0c-6.98,9.92-6.1,17.88,0,24.53c15.75,14.5,9.43,15.93,0,15.54
		c-26.91-18.32-54.17-44.42-81.77-77.68c3.33,8.22,0.33,13.88-6.54,17.99c6.63-0.7,12.5-0.15,14.72,6.54
		c21.61,31.92,42.88,54.36,63.78,67.05c10.44,7.13,15.69,16.78,14.72,29.44v35.98c-23.93,5.31-35.25,18.24-27.8,42.52
		c1.03,15.72-3.51,26.46-13.08,32.71c-20.65,15.92-28.44,34.67-11.45,58.87c3,22.07,9.34,42.59,21.26,60.51l-24.53,13.08H653.7z"/>
	<path class="st0" d="M459.09,1394.95l-6.54-16.35c1.84,8.9-1.63,14.02-8.99,16.35c-12.58-2.59-23.13-8.58-29.44-21.68
		c-4.23-28.93,4.4-54.97,18.81-79.72c2.16-32.83,0.57-66.5-6.54-101.4c9.74-9.03,9.78-19.2-4.91-31.07
		c-1.76-8.54,1.16-13.8,11.45-13.9l-11.45-4.09c-3.38,3.63-5.77,9.22-7.36,16.35c-12.65-32.59-32.76-56.95-61.33-71.96v-10.63
		c13.32,11.87,17.99,0.82,24.53-18.81c-6.98-7.63-6.86-32.66-4.91-62.15c-6.57,10.38-31.07,4.91-49.88,14.72l-8.18-10.63
		c4.52,8.31,2.88,18.57-3.27,30.26c4.04,10.02-4.43,15.32-15.54,19.62c19.91,7.02,30.62,17.87,27.8,34.34
		c-20.49-2.03-32.94,4.49-32.71,24.53v31.89c2.29,14.76,8.94,25.29,19.62,31.89c3.27,22.9-12.29,71.58,3.27,76.86
		c5.62,19.06,6.79,38.14,1.64,57.24l-15.54,66.63h8.99l-8.18,16.77l67.87,4.91l-8.99-11.45l-6.54,1.64
		c-1.63,7.18-9.61,5.5-26.17-8.18c27.31-10.59,45.96-23.94,48.24-42.52l22.08,53.97l-0.82,6.54H459.09z"/>
	<path class="st0" d="M225.22,1394.95l-37.61-8.18c2.41-20.94,10.76-39.77,22.9-57.24l21.26-16.35
		c8.04-35.91,7.31-72.67-3.27-110.39c9.81-12.27-17.99-33.53-18.81-83.41c10.99,1,29.22,14.93,48.24,30.26
		c7.46,5.55,13.65,7.27,13.08-11.45c1.29-22.76-12.76-63.35-30.26-107.94l36.8-85.04c21.17-7.64,41.9,0.05,62.15,24.53
		c32.1-5.15,54.69,9.7,69.5,40.89c14.72-43.38,9.76-79.82-18.81-107.94c-1.88-31.25-20.63-59.88-56.42-85.86
		c-41.81-7.66-81.1-5.36-116.93,10.63c-37.37,0.59-62.29,19.63-76.86,53.97c29.27-5.46,50.05,3.71,62.15,27.8
		c32.97-4.18,56.92,1.99,63.78,27.8l-57.24,127.56c-4.08,3.26-6.44,1.69-8.18-1.64c-0.55-51.6-25.86-63.66-67.05-44.16
		c-7.16,15.34,13.08,29.44,11.45,55.6c7.85,7.52,11.99,5.57,14.72,0c4.77,9.14-29.44,31.07-50.7,70.32
		c-9.29,14.6-11.98,27.63,4.91,35.98c5.45,8.8,18.76,20,34.34,31.89c-37.66,70.09-76.13,134.42-116.93,182.35h33.53
		c-20.1-13.18,20.3-45.81,50.7-75.23c16.19,17.41,37.83,26.65,63.78,29.44c-8.3,12.16-14.32,27.81-18.81,45.79H225.22z"/>
</g>
</svg>
